<svg width="199" height="100" viewBox="0 0 199 100" fill="none" xmlns="http://www.w3.org/2000/svg">
<path d="M0.293002 81.3107V65.1621H13.0381V67.0198H2.30769V71.7532H8.79998V73.6109H2.30769V79.4531H13.6987V81.3107H0.293002ZM14.653 81.3107V65.1621H16.6676V79.4531H27.2471V81.3107H14.653ZM30.2208 79.0627C30.9816 79.0627 31.4227 79.7035 31.4227 80.416C31.4227 81.1214 30.9615 81.7293 30.2208 81.7293C29.4694 81.7293 28.9881 81.1402 28.9881 80.416C28.9881 79.7058 29.4729 79.0627 30.2208 79.0627ZM37.6131 71.544H45.3569C46.8478 71.544 47.9826 70.9185 47.9826 69.3019C47.9826 67.6171 46.9245 67.0198 45.3569 67.0198H37.6131V71.544ZM37.6131 79.4531H46.0894C47.9661 79.4531 49.0642 78.2785 49.0642 76.4267C49.0642 74.5879 47.9543 73.4004 46.0894 73.4004H37.6131V79.4531ZM35.5984 81.3107V65.1621H45.1823C47.9118 65.1621 50.0267 66.1791 50.0267 69.1866C50.0267 70.3718 49.575 71.4746 48.5582 72.1424C50.2155 73.103 51.1686 74.5174 51.1686 76.4573C51.1686 77.9493 50.6779 79.1286 49.6953 80.0021C48.7092 80.8757 47.3763 81.3107 45.6931 81.3107H35.5984ZM53.175 81.3107V65.1621H65.919V67.0198H55.1885V71.7532H61.6808V73.6109H55.1885V79.4531H66.5807V81.3107H53.175ZM70.3258 75.0782H77.4586L73.8774 67.9286L70.3258 75.0782ZM65.1003 81.3107L73.0411 65.1621H74.7137L82.7442 81.3107H80.5549L78.3562 76.9664H69.4034L67.2601 81.3107H65.1003ZM0.0629883 81.3107V64.9317H13.2682V67.249H2.5377V71.5228H9.03V73.8402H2.5377V79.2226H13.9299V81.54H0.0629883V81.3107ZM0.524196 65.3926V81.0803H13.4687V79.6823H2.0765V73.3804H8.56879V71.9837H2.0765V66.7893H12.8069V65.3926H0.524196ZM14.4229 81.3107V64.9317H16.8977V79.2226H27.4783V81.54H14.4229V81.3107ZM14.8841 65.3926V81.0803H27.0171V79.6823H16.4364V65.3926H14.8841ZM30.2208 78.8335C30.8389 78.8335 31.3496 79.2214 31.5537 79.7976C31.8262 80.5641 31.5596 81.5118 30.7799 81.8468C30.4296 81.9985 30.0002 81.9961 29.6487 81.8492C29.0672 81.6023 28.7581 81.0368 28.7581 80.416C28.7581 79.9727 28.8985 79.5965 29.1804 79.292C29.48 78.9934 29.7891 78.8335 30.2208 78.8335ZM30.5982 79.3672C30.3682 79.2661 30.071 79.2685 29.8421 79.3696C29.0318 79.727 28.9905 81.0756 29.8268 81.4259C30.0604 81.5212 30.3659 81.527 30.5982 81.4271C31.4003 81.0814 31.3885 79.7176 30.5982 79.3672ZM37.8431 71.3135H45.3569C46.7216 71.3135 47.7514 70.7833 47.7514 69.3019C47.7514 67.7487 46.7971 67.249 45.3569 67.249H37.8431V71.3135ZM45.3569 71.7732H37.3819V66.7893H45.3569C47.0554 66.7893 48.2138 67.4901 48.2138 69.3019C48.2138 71.0478 46.9776 71.7732 45.3569 71.7732ZM37.8431 79.2226H46.0894C47.8729 79.2226 48.8342 78.1163 48.8342 76.4267C48.8342 74.7137 47.8281 73.6309 46.0894 73.6309H37.8431V79.2226ZM46.0894 79.6823H37.3819V73.1712H46.0894C48.0805 73.1712 49.2954 74.4621 49.2954 76.4267C49.2954 78.3784 48.1135 79.6823 46.0894 79.6823ZM35.3684 81.3107V64.9317H45.1823C48.0427 64.9317 50.2568 66.0498 50.2568 69.1866C50.2568 70.3142 49.8628 71.3994 48.9699 72.1248C50.5363 73.1347 51.3998 74.5797 51.3998 76.4573C51.3998 77.9046 50.9492 79.1932 49.8486 80.1726C48.695 81.1967 47.2052 81.54 45.6931 81.54H35.3684V81.3107ZM35.8296 65.3926V81.0803H45.6931C47.0896 81.0803 48.4745 80.7757 49.542 79.8305C50.5446 78.9404 50.9374 77.7718 50.9374 76.4573C50.9374 75.6131 50.7522 74.8137 50.311 74.0882H50.3098C49.8569 73.3428 49.194 72.7761 48.4438 72.3411L48.1229 72.1553C48.4579 71.9343 48.7375 71.7603 49.01 71.4511C49.5691 70.8185 49.7956 70.0191 49.7956 69.1866C49.7956 66.3132 47.7844 65.3926 45.1823 65.3926H35.8296ZM52.9438 81.3107V64.9317H66.1501V67.249H55.4197V71.5228H61.912V73.8402H55.4197V79.2226H65.8706L72.8984 64.9317H74.8565C77.6072 70.4694 80.3615 76.0047 83.1157 81.54H80.4134L78.2147 77.1957H69.5473L67.4028 81.54H52.9438V81.3107ZM53.4062 65.3926V81.0803H64.9576L65.6453 79.6823H54.9585V73.3804H61.4508V71.9837H54.9585V66.7893H65.6889V65.3926H53.4062ZM66.3825 79.2226H66.8107V81.0803H67.1162L69.2606 76.736H78.4978L80.6965 81.0803H82.3726L74.571 65.3926H73.1839L66.3825 79.2226ZM66.3495 79.6823H66.156L65.4695 81.0803H66.3495V79.6823ZM70.6962 74.8489H77.0858L73.8774 68.4436L70.6962 74.8489ZM77.4586 75.3086H69.9542L73.8763 67.4125L77.8325 75.3086H77.4586ZM85.0101 65.1621V75.6178C85.0101 77.2909 85.3251 78.4161 85.9573 78.9887C86.5872 79.5589 87.8257 79.8422 89.6788 79.8422C91.5284 79.8422 92.7669 79.5589 93.3909 78.9887C94.0184 78.4161 94.3286 77.2909 94.3286 75.6178V65.1621H96.3421V76.1575C96.3421 78.1445 95.8255 79.573 94.7887 80.436C93.7518 81.3001 92.0438 81.7293 89.6694 81.7293C87.2949 81.7293 85.5869 81.3001 84.5501 80.436C83.5121 79.573 82.9966 78.1445 82.9966 76.1575V65.1621H85.0101ZM101.604 81.3107V67.0198H94.7816V65.1621H110.441V67.0198H103.619V81.3107H101.604ZM123.457 79.0627C124.217 79.0627 124.659 79.7047 124.659 80.416C124.659 81.1214 124.197 81.7293 123.457 81.7293C122.705 81.7293 122.224 81.1402 122.224 80.416C122.224 79.7058 122.709 79.0627 123.457 79.0627ZM141.759 76.1575L143.383 77.3556C141.866 80.2243 139.148 81.7293 135.923 81.7293C133.498 81.7293 131.493 80.9321 129.911 79.3378C128.333 77.7459 127.543 75.7225 127.543 73.2711C127.543 70.8138 128.333 68.7857 129.917 67.1938C131.504 65.6007 133.504 64.8024 135.919 64.8024C138.851 64.8024 141.434 66.0898 143.022 68.5776L141.334 69.7757C140.269 67.7487 138.178 66.6894 135.923 66.6894C134.105 66.6894 132.597 67.3137 131.405 68.5576C130.212 69.8004 129.616 71.3735 129.616 73.2711C129.616 75.1734 130.212 76.7465 131.405 77.9846C132.597 79.2226 134.105 79.8422 135.923 79.8422C138.581 79.8422 140.531 78.4537 141.759 76.1575ZM144.944 81.3107V65.1621H146.957V79.4531H157.538V81.3107H144.944ZM179.226 81.3107V65.0716H181.27V81.3107H179.226ZM197.019 76.1575L198.642 77.3556C197.125 80.2243 194.408 81.7293 191.182 81.7293C188.757 81.7293 186.752 80.9321 185.171 79.3378C183.592 77.7459 182.801 75.7225 182.801 73.2711C182.801 70.8138 183.592 68.7857 185.176 67.1938C186.762 65.6007 188.763 64.8024 191.178 64.8024C194.11 64.8024 196.693 66.0898 198.281 68.5776L196.593 69.7757C195.528 67.7487 193.436 66.6894 191.182 66.6894C189.363 66.6894 187.856 67.3137 186.663 68.5576C185.471 69.8004 184.875 71.3735 184.875 73.2711C184.875 75.1734 185.471 76.7465 186.663 77.9846C187.856 79.2226 189.363 79.8422 191.182 79.8422C193.841 79.8422 195.79 78.4537 197.019 76.1575ZM115.339 81.3107V73.2217L108.035 65.1621H110.564L116.365 71.5381L122.132 65.1621H124.687L117.352 73.2511V81.3107H115.339ZM159.158 81.3107V65.0716H161.201V81.3107H159.158ZM163.424 81.3107V65.1621H164.481L174.996 77.2309V65.1621H177.01V81.3107H175.982L165.437 69.2419V81.3107H163.424ZM85.2413 65.1621V75.6178C85.2413 77.2227 85.5315 78.2903 86.1118 78.8182C86.9021 79.533 88.6667 79.6118 89.6788 79.6118C90.6897 79.6118 92.4496 79.5342 93.2364 78.8182C93.9995 78.1174 94.0974 76.5831 94.0974 75.6178V64.9317H110.673L116.365 71.1971L122.029 64.9317H125.205L117.584 73.3381V81.54H115.108V73.3076L109.617 67.249H103.849V81.54H101.374V67.249H96.5722V76.1575C96.5722 77.7682 96.2395 79.5271 94.9373 80.6123C93.5749 81.7469 91.3774 81.9597 89.6694 81.9597C87.9614 81.9597 85.7639 81.7469 84.4015 80.6123C83.0981 79.5271 82.7654 77.7682 82.7654 76.1575V64.9317H85.2413V65.1621ZM84.7801 75.6178V65.3926H83.2278V76.1575C83.2278 77.6225 83.5074 79.2697 84.6975 80.2608C85.962 81.3131 88.0864 81.5 89.6694 81.5C91.2523 81.5 93.3767 81.3131 94.6412 80.2608C95.8302 79.2697 96.1109 77.6225 96.1109 76.1575V67.249H94.5586V75.6178C94.5586 76.4738 94.4784 77.1933 94.3168 77.7765C93.9677 79.0345 93.3048 79.5624 92.045 79.8528C91.408 79.9986 90.6201 80.0727 89.6788 80.0727C88.5181 80.0727 86.7075 79.9739 85.8028 79.158H85.8016C85.121 78.5384 84.7801 77.3579 84.7801 75.6178ZM96.1109 65.3926H95.0128V66.7893H96.1109V65.3926ZM96.5722 65.3926V66.7893H101.835V81.0803H103.388V66.7893H109.201L107.934 65.3926H96.5722ZM110.211 65.3926H108.553L109.819 66.7893H110.211V65.3926ZM110.673 65.6219V67.249H110.236L115.569 73.1347V81.0803H117.121V73.1641L124.168 65.3926H122.233L116.366 71.8802L110.673 65.6219ZM123.457 78.8335C124.075 78.8335 124.586 79.2214 124.79 79.7976C125.062 80.5641 124.795 81.5118 124.016 81.8468C123.257 82.1749 122.38 81.7845 122.095 81.0156C121.89 80.4618 121.992 79.7153 122.417 79.2908C122.697 78.9945 123.047 78.8335 123.457 78.8335ZM123.834 79.3672C123.604 79.2661 123.307 79.2685 123.078 79.3696C122.268 79.7258 122.228 81.0756 123.063 81.4259C123.296 81.5212 123.602 81.527 123.834 81.4271C124.635 81.0814 124.626 79.7188 123.834 79.3672ZM141.897 75.9729L143.678 77.2886C143.266 78.0669 142.837 78.7312 142.229 79.3766C140.57 81.1355 138.32 81.9597 135.923 81.9597C133.522 81.9597 131.455 81.2014 129.747 79.4989C128.05 77.7847 127.311 75.6567 127.311 73.2711C127.311 70.882 128.05 68.7469 129.753 67.0327C131.445 65.3373 133.536 64.5719 135.919 64.5719C138.929 64.5719 141.585 65.9028 143.215 68.4542L143.332 68.6376L141.253 70.1155L141.13 69.8815C140.106 67.931 138.09 66.9198 135.923 66.9198C134.223 66.9198 132.754 67.4818 131.571 68.7152C130.356 69.9826 129.848 71.5369 129.848 73.2711C129.848 75.1123 130.422 76.6325 131.571 77.8259C132.755 79.0568 134.224 79.6118 135.923 79.6118C138.495 79.6118 140.369 78.2703 141.557 76.0493L141.682 75.8142L141.897 75.9729ZM143.086 77.4214L141.834 76.4973C140.551 78.7465 138.557 80.0727 135.923 80.0727C134.1 80.0727 132.51 79.4636 131.238 78.1433C130.003 76.8606 129.385 75.2346 129.385 73.2711C129.385 71.4205 129.942 69.751 131.238 68.3989C132.507 67.075 134.096 66.4601 135.923 66.4601C138.162 66.4601 140.269 67.4771 141.411 69.4394L142.708 68.5188C141.15 66.2074 138.687 65.0328 135.919 65.0328C133.659 65.0328 131.685 65.7465 130.08 67.356C128.46 68.9856 127.773 71.002 127.773 73.2711C127.773 75.5379 128.462 77.5472 130.076 79.1768C131.682 80.7922 133.662 81.5 135.923 81.5C138.983 81.5 141.588 80.1138 143.086 77.4214ZM144.712 81.3107V64.9317H147.188V79.2226H157.768V81.54H144.712V81.3107ZM145.174 65.3926V81.0803H157.306V79.6823H146.726V65.3926H145.174ZM178.996 81.3107V64.8423H181.502V81.54H178.996V81.3107ZM179.457 65.302V81.0803H181.039V65.302H179.457ZM197.156 75.9729L198.937 77.2886C198.525 78.0669 198.097 78.7312 197.488 79.3766C195.83 81.1355 193.579 81.9597 191.182 81.9597C188.781 81.9597 186.715 81.2014 185.006 79.4989C183.309 77.7859 182.57 75.6567 182.57 73.2711C182.57 70.882 183.309 68.7469 185.012 67.0327C186.703 65.3373 188.796 64.5719 191.178 64.5719C194.188 64.5719 196.845 65.9028 198.474 68.4542L198.591 68.6376L196.511 70.1155L196.389 69.8815C195.364 67.931 193.35 66.9198 191.182 66.9198C189.481 66.9198 188.013 67.4818 186.83 68.7152C185.615 69.9826 185.106 71.5369 185.106 73.2711C185.106 75.1123 185.681 76.6325 186.83 77.8259C188.014 79.0568 189.482 79.6118 191.182 79.6118C193.754 79.6118 195.628 78.2703 196.816 76.0493L196.941 75.8142L197.156 75.9729ZM198.345 77.4214L197.093 76.4973C195.81 78.7465 193.816 80.0727 191.182 80.0727C189.359 80.0727 187.769 79.4636 186.497 78.1433C185.262 76.8606 184.644 75.2346 184.644 73.2711C184.644 71.4205 185.201 69.751 186.497 68.3989C187.766 67.075 189.355 66.4601 191.182 66.4601C193.421 66.4601 195.529 67.4771 196.67 69.4394L197.967 68.5188C196.409 66.2074 193.946 65.0328 191.178 65.0328C188.917 65.0328 186.944 65.7465 185.339 67.356C183.72 68.9844 183.031 71.002 183.031 73.2711C183.031 75.5379 183.72 77.5472 185.335 79.1768C186.941 80.7922 188.921 81.5 191.182 81.5C194.242 81.5 196.846 80.1138 198.345 77.4214ZM158.927 81.3107V64.8423H161.433V81.54H158.927V81.3107ZM159.388 65.302V81.0803H160.971V65.302H159.388ZM163.192 81.3107V64.9317H164.586L174.765 76.616V64.9317H177.241V81.54H175.877L165.668 69.8556V81.54H163.192V81.3107ZM163.655 65.3926V81.0803H165.207V68.627L176.087 81.0803H176.779V65.3926H175.226V77.8458L164.377 65.3926H163.655Z" fill="#2B2A29"/>
<path d="M110.67 11.1153C112.837 11.1153 114.8 11.9912 116.22 13.4068C117.64 14.8224 118.519 16.7788 118.519 18.9386C118.519 21.0984 117.64 23.0548 116.22 24.4703C114.8 25.8859 112.837 26.7618 110.67 26.7618V24.856C112.31 24.856 113.794 24.194 114.868 23.123C115.943 22.0519 116.607 20.5728 116.607 18.9386C116.607 17.3043 115.943 15.8241 114.868 14.7542C113.795 13.6831 112.31 13.02 110.67 13.02V11.1153Z" fill="#EBB678"/>
<path d="M99.4999 0C106.65 0 113.123 2.88875 117.809 7.5599C122.494 12.2299 125.392 18.6822 125.392 25.8095C125.392 32.9355 122.494 39.3879 117.809 44.0591C113.123 48.729 106.649 51.6178 99.4999 51.6178C92.3494 51.6178 85.876 48.729 81.1908 44.0591C76.5056 39.3879 73.6074 32.9355 73.6074 25.8095C73.6074 18.6822 76.5056 12.2299 81.1908 7.5599C85.876 2.88875 92.3494 0 99.4999 0ZM116.345 9.01898C112.034 4.72171 106.078 2.06457 99.4999 2.06457C92.9215 2.06457 86.9659 4.72171 82.6546 9.01898C78.3434 13.3151 75.6775 19.2525 75.6775 25.8095C75.6775 32.3665 78.3434 38.3027 82.6546 42.5988C86.9659 46.8961 92.9215 49.5544 99.4999 49.5544C106.078 49.5544 112.034 46.8961 116.345 42.5988C120.656 38.3027 123.322 32.3665 123.322 25.8095C123.322 19.2525 120.656 13.3151 116.345 9.01898Z" fill="#EBB678"/>
<path d="M110.784 13.0211H98.5293V11.1153H110.784V13.0211Z" fill="#EBB678"/>
<path d="M92.7635 9.51865C92.4557 10.0454 92.0806 10.5298 91.65 10.9589C91.2207 11.3869 90.7347 11.7608 90.2062 12.0676C90.7347 12.3757 91.2207 12.7484 91.65 13.1775C92.0806 13.6066 92.4557 14.0899 92.7635 14.6178C93.0714 14.0899 93.4465 13.6066 93.877 13.1775C94.3076 12.7484 94.7924 12.3757 95.322 12.0676C94.7924 11.7608 94.3076 11.3869 93.877 10.9589C93.4465 10.5298 93.0714 10.0454 92.7635 9.51865ZM90.2994 9.61153C91.2313 8.68271 91.8081 7.39882 91.8081 5.9809H93.719C93.719 7.39882 94.2958 8.68271 95.2276 9.61153C96.1607 10.5404 97.4487 11.1153 98.8713 11.1153V13.02C97.4487 13.02 96.1607 13.5949 95.2276 14.5249C94.2958 15.4537 93.719 16.7376 93.719 18.1555H91.8081C91.8081 16.7376 91.2313 15.4537 90.2994 14.5249C89.3676 13.5949 88.0795 13.02 86.6558 13.02V11.1153C88.0795 11.1153 89.3676 10.5404 90.2994 9.61153Z" fill="#EBB678"/>
<path d="M104.902 11.1153C107.069 11.1153 109.032 11.9912 110.452 13.4068C111.872 14.8224 112.751 16.7788 112.751 18.9386C112.751 21.0984 111.872 23.0548 110.452 24.4703C109.032 25.8859 107.069 26.7618 104.902 26.7618V24.856C106.542 24.856 108.026 24.194 109.1 23.123C110.175 22.0519 110.839 20.5728 110.839 18.9386C110.839 17.3043 110.175 15.8241 109.1 14.7542C108.026 13.6831 106.542 13.02 104.902 13.02V11.1153Z" fill="#EBB678"/>
<path d="M110.839 26.7618H99.1271V24.856H110.839V26.7618ZM85.1576 26.7618H78.3574V24.856H85.1576V26.7618Z" fill="#EBB678"/>
<path d="M98.6011 17.9862C100.768 17.9862 102.73 18.8621 104.15 20.2777C105.571 21.6933 106.449 23.6485 106.449 25.8095C106.449 27.9693 105.571 29.9245 104.15 31.3401C102.73 32.7568 100.768 33.6316 98.6011 33.6316V31.7269C100.241 31.7269 101.725 31.065 102.799 29.9939C103.874 28.9228 104.538 27.4437 104.538 25.8095C104.538 24.174 103.874 22.695 102.799 21.6239C101.725 20.5528 100.241 19.8909 98.6011 19.8909V17.9862Z" fill="#EBB678"/>
<path d="M98.7144 19.8909H82.4707V17.9862H98.7144V19.8909Z" fill="#EBB678"/>
<path d="M98.7687 33.6316H82.4707V31.7269H98.7687V33.6316Z" fill="#EBB678"/>
<path d="M91.4461 25.88C91.2585 25.639 91.0674 25.4062 90.8728 25.1852C90.6558 24.9359 90.4317 24.6984 90.2005 24.4715H90.1993C89.9823 24.2575 89.7322 24.0965 89.4491 23.9883C89.1648 23.8801 88.8463 23.8249 88.4937 23.8249C87.8826 23.8249 87.4297 23.9718 87.1348 24.2658C86.9166 24.4809 86.7526 24.7173 86.6441 24.9736C86.5356 25.2287 86.4813 25.5073 86.4813 25.8095C86.4813 26.1093 86.5403 26.3938 86.6594 26.6595C86.7798 26.9288 86.9602 27.1827 87.2032 27.4226C87.3507 27.566 87.53 27.6754 87.7411 27.7483C87.9558 27.8223 88.207 27.86 88.4937 27.86C88.8959 27.86 89.245 27.8118 89.5435 27.713C89.836 27.6178 90.0778 27.4743 90.2712 27.285C90.4765 27.0805 90.6841 26.8524 90.8941 26.5996C91.0792 26.3762 91.2633 26.1363 91.4461 25.88ZM93.4749 25.9424C93.5823 26.1011 93.7179 26.2763 93.8842 26.4691C94.08 26.6948 94.316 26.9441 94.592 27.2168C94.809 27.4308 95.0591 27.5919 95.341 27.6989C95.6253 27.8059 95.9437 27.86 96.2988 27.86C96.5819 27.86 96.8414 27.8129 97.0797 27.7165C97.3168 27.6213 97.5326 27.4779 97.7284 27.285C97.8971 27.1181 98.0245 26.9135 98.1094 26.6713C98.1967 26.4244 98.2392 26.1363 98.2392 25.8095C98.2392 25.505 98.1967 25.2346 98.1106 24.9994C98.0257 24.7678 97.8983 24.5691 97.7284 24.401C97.5586 24.2329 97.3557 24.1082 97.1198 24.0236C96.8815 23.9389 96.6067 23.8954 96.2988 23.8954C95.965 23.8954 95.6666 23.9389 95.4023 24.0259C95.144 24.1106 94.9175 24.2364 94.7241 24.4057C94.474 24.6314 94.2405 24.8807 94.0234 25.1499C93.8264 25.3968 93.6436 25.6614 93.4749 25.9424ZM92.398 24.535C92.6056 24.2787 92.799 24.0483 92.976 23.8437C93.1895 23.598 93.3794 23.3934 93.5445 23.2288C93.8854 22.8937 94.2818 22.6421 94.7323 22.474C95.1794 22.307 95.6784 22.2235 96.2304 22.2235C96.8048 22.2235 97.3203 22.307 97.778 22.474C98.2392 22.6421 98.639 22.8937 98.9799 23.2288H98.9811C99.2984 23.5415 99.5367 23.9154 99.6959 24.3493C99.8528 24.7796 99.9318 25.2663 99.9318 25.8095C99.9318 26.3974 99.8528 26.917 99.6959 27.3697C99.5379 27.827 99.2984 28.2139 98.9811 28.5266C98.6178 28.8852 98.2061 29.1533 97.7473 29.332C97.2873 29.5107 96.7824 29.6 96.2304 29.6C95.1192 29.6 94.1768 29.2191 93.4042 28.4561C93.1966 28.2515 93.0007 28.0516 92.8156 27.8588C92.6705 27.7071 92.5336 27.5602 92.4039 27.4179C92.3072 27.5425 92.1951 27.6765 92.0689 27.8176C91.8943 28.0116 91.6903 28.2244 91.4555 28.4561C91.0686 28.8382 90.6287 29.1239 90.1332 29.3143C89.639 29.5048 89.0929 29.6 88.4937 29.6C87.9652 29.6 87.4887 29.5224 87.0664 29.3684C86.6394 29.212 86.2678 28.9781 85.9505 28.6653C85.5648 28.2844 85.2746 27.8553 85.0812 27.3767C84.8877 26.9006 84.791 26.3774 84.791 25.8095C84.791 25.2851 84.8889 24.796 85.0824 24.341C85.2758 23.8884 85.5648 23.471 85.9505 23.0912C86.2678 22.7785 86.6394 22.5433 87.0664 22.3881C87.4887 22.2329 87.9652 22.1565 88.4937 22.1565C89.0469 22.1565 89.5659 22.2576 90.0483 22.4599C90.5308 22.6621 90.9754 22.9642 91.3848 23.3663C91.5735 23.5533 91.7622 23.7579 91.9498 23.9777C92.1007 24.1541 92.2505 24.341 92.398 24.535Z" fill="#EBB678"/>
<path d="M110.67 40.5025C112.837 40.5025 114.8 39.6266 116.22 38.211C117.64 36.7954 118.519 34.839 118.519 32.6792C118.519 30.5194 117.64 28.563 116.22 27.1474C114.8 25.7319 112.837 24.856 110.67 24.856V26.7618C112.31 26.7618 113.794 27.4237 114.868 28.4948C115.943 29.5659 116.607 31.045 116.607 32.6792C116.607 34.3135 115.943 35.7937 114.868 36.8648C113.795 37.9347 112.31 38.5978 110.67 38.5978V40.5025Z" fill="#EBB678"/>
<path d="M91.8081 45.6369C91.8081 44.219 91.2313 42.9351 90.2994 42.0063C89.3676 41.0774 88.0795 40.5025 86.6558 40.5025V38.5978C88.0795 38.5978 89.3676 38.0229 90.2994 37.0929C91.2313 36.1641 91.8081 34.8802 91.8081 33.4623H93.719C93.719 34.8802 94.2958 36.1641 95.2276 37.0929C96.1607 38.0229 97.4487 38.5978 98.8713 38.5978V40.5025C97.4487 40.5025 96.1607 41.0774 95.2276 42.0063C94.2958 42.9351 93.719 44.219 93.719 45.6369H91.8081ZM91.6512 40.6601C92.0806 41.088 92.4557 41.5724 92.7635 42.0991C93.0714 41.5724 93.4465 41.088 93.877 40.6589C94.3076 40.2309 94.7924 39.857 95.322 39.5502C94.7924 39.2421 94.3076 38.8694 93.877 38.4403C93.4465 38.0112 93.0714 37.5279 92.7635 37C92.4557 37.5279 92.0806 38.0112 91.65 38.4403C91.2207 38.8694 90.7347 39.2421 90.2062 39.5502C90.7347 39.857 91.2207 40.2309 91.6512 40.6601Z" fill="#EBB678"/>
<path d="M104.902 40.5025C107.069 40.5025 109.032 39.6266 110.452 38.211C111.872 36.7954 112.751 34.839 112.751 32.6792C112.751 30.5194 111.872 28.563 110.452 27.1474C109.032 25.7319 107.069 24.856 104.902 24.856V26.7618C106.542 26.7618 108.026 27.4237 109.1 28.4948C110.175 29.5659 110.839 31.045 110.839 32.6792C110.839 34.3135 110.175 35.7937 109.1 36.8648C108.026 37.9347 106.542 38.5978 104.902 38.5978V40.5025Z" fill="#EBB678"/>
<path d="M98.7144 33.6316H82.4707V31.7269H98.7144V33.6316Z" fill="#EBB678"/>
<path d="M110.784 40.5025H98.7085V38.5978H110.784V40.5025Z" fill="#EBB678"/>
<path d="M25.0412 99.8754H23.9501L21.059 96.6692V99.8754H20.1685V93.1961H21.059V96.2106L23.8546 93.1961H24.9457L21.9873 96.4399L25.0412 99.8754ZM26.8943 99.8754V99.0735C27.3343 99.137 27.6646 99.0147 27.8851 98.7067C28.1045 98.3975 28.2154 97.8237 28.2154 96.9843V93.1961H32.6376V99.8754H31.7482V94.0355H29.106V96.9843C29.106 97.5815 29.0494 98.0836 28.9373 98.4868C28.8264 98.8913 28.6672 99.1946 28.4596 99.398C28.252 99.6014 28.022 99.7402 27.7695 99.8131C27.5183 99.8859 27.2258 99.9071 26.8943 99.8754ZM39.8518 99.8754V94.8938L36.4051 99.8754H35.6879V93.1961H36.5785V98.1858L40.024 93.1961H40.7423V99.8754H39.8518ZM47.9376 93.1961H48.8176V99.8754H47.9376V96.869H44.6821V99.8754H43.7915V93.1961H44.6821V96.0296H47.9376V93.1961ZM56.0318 99.8754V94.8938L52.5851 99.8754H51.8679V93.1961H52.7573V98.1858L56.204 93.1961H56.9223V99.8754H56.0318ZM64.8443 99.8754H63.7532L60.8621 96.6692V99.8754H59.9715V93.1961H60.8621V96.2106L63.6576 93.1961H64.7487L61.7904 96.4399L64.8443 99.8754ZM71.7907 99.8754L71.2445 98.3775H68.2296L67.6835 99.8754H66.7351L69.2346 93.1961H70.2396L72.7379 99.8754H71.7907ZM68.5351 97.5474H70.9379L69.7323 94.2554L68.5351 97.5474ZM80.0287 93.0715C81.0372 93.0715 81.8665 93.4042 82.5176 94.0685C83.1687 94.7339 83.4943 95.5558 83.4943 96.5351C83.4943 97.5086 83.1687 98.3293 82.5176 98.9971C81.8665 99.6649 81.0372 99.9988 80.0287 99.9988C79.4095 99.9988 78.8421 99.8519 78.3243 99.5556C77.8076 99.2605 77.4125 98.8642 77.1376 98.3681L77.9126 97.9284C78.0978 98.2917 78.3821 98.5821 78.7654 98.8019C79.1476 99.0218 79.5687 99.1311 80.0287 99.1311C80.7247 99.1311 81.3015 98.9277 81.7615 98.5198C82.2203 98.113 82.4952 97.5886 82.5848 96.9455H79.1382V96.1154H82.5848C82.4952 95.4735 82.2203 94.9479 81.7615 94.5411C81.3015 94.1343 80.7247 93.9309 80.0287 93.9309C79.5687 93.9309 79.1499 94.0402 78.7701 94.2601C78.3903 94.4788 78.1049 94.7739 77.9126 95.1419L77.1376 94.6939C77.4184 94.1978 77.817 93.8027 78.3337 93.5112C78.8515 93.2184 79.4153 93.0715 80.0287 93.0715ZM85.2223 99.8754V99.0735C85.6635 99.137 85.9938 99.0147 86.2132 98.7067C86.4337 98.3975 86.5434 97.8237 86.5434 96.9843V93.1961H90.9668V99.8754H90.0762V94.0355H87.434V96.9843C87.434 97.5815 87.3785 98.0836 87.2665 98.4868C87.1544 98.8913 86.9952 99.1946 86.7876 99.398C86.58 99.6014 86.3512 99.7402 86.0987 99.8131C85.8463 99.8859 85.555 99.9071 85.2223 99.8754ZM99.5929 98.9877C98.9194 99.6626 98.0972 99.9988 97.1276 99.9988C96.158 99.9988 95.337 99.6626 94.6671 98.9877C93.9971 98.314 93.6621 97.4957 93.6621 96.5351C93.6621 95.5687 93.9971 94.7492 94.6671 94.0779C95.337 93.4077 96.158 93.0715 97.1276 93.0715C98.0972 93.0715 98.9194 93.4077 99.5929 94.0779C100.266 94.7492 100.603 95.5687 100.603 96.5351C100.603 97.4957 100.266 98.314 99.5929 98.9877ZM95.284 98.3822C95.7794 98.8819 96.3939 99.1311 97.1276 99.1311C97.8613 99.1311 98.4758 98.8819 98.9701 98.3822C99.4655 97.8825 99.712 97.2676 99.712 96.5351C99.712 95.798 99.4655 95.1795 98.9701 94.6798C98.4758 94.1802 97.8613 93.9309 97.1276 93.9309C96.3939 93.9309 95.7794 94.1802 95.284 94.6798C94.7897 95.1795 94.5432 95.798 94.5432 96.5351C94.5432 97.2676 94.7897 97.8825 95.284 98.3822ZM107.433 93.1961H108.315V99.8754H107.433V96.869H104.179V99.8754H103.288V93.1961H104.179V96.0296H107.433V93.1961ZM111.364 99.8754V93.1961H112.254V95.5816H113.796C114.414 95.5816 114.93 95.7885 115.341 96.2012C115.753 96.6151 115.959 97.1242 115.959 97.7285C115.959 98.3387 115.753 98.8501 115.341 99.2605C114.93 99.6696 114.414 99.8754 113.796 99.8754H111.364ZM116.639 99.8754V93.1961H117.529V99.8754H116.639ZM112.254 99.0453H113.796C114.165 99.0453 114.472 98.9207 114.715 98.6726C114.957 98.4245 115.078 98.1094 115.078 97.7285C115.078 97.3464 114.957 97.0313 114.715 96.7832C114.472 96.5351 114.165 96.4117 113.796 96.4117H112.254V99.0453ZM126.735 93.1961V94.0355H123.862V99.8754H122.972V93.1961H126.735ZM132.877 99.8754L132.33 98.3775H129.315L128.769 99.8754H127.821L130.32 93.1961H131.325L133.824 99.8754H132.877ZM129.621 97.5474H132.024L130.818 94.2554L129.621 97.5474ZM138.75 95.8203C139.331 95.8203 139.822 96.0155 140.224 96.407C140.626 96.7985 140.827 97.277 140.827 97.8425C140.827 98.4222 140.627 98.9054 140.229 99.2934C139.83 99.6814 139.337 99.8754 138.75 99.8754H136.232V93.1961H140.253V94.0355H137.123V95.8203H138.75ZM138.75 99.0453C139.082 99.0453 139.364 98.9313 139.598 98.702C139.83 98.4727 139.947 98.1859 139.947 97.8425C139.947 97.5051 139.83 97.2229 139.598 96.9937C139.364 96.7644 139.082 96.6504 138.75 96.6504H137.123V99.0453H138.75ZM146.989 93.1961H147.888L145.734 98.2917C145.492 98.8642 145.182 99.2793 144.805 99.5368C144.429 99.7942 143.969 99.9071 143.426 99.8754V99.0547C143.797 99.0935 144.096 99.0382 144.326 98.8925C144.557 98.7467 144.748 98.4951 144.901 98.1388L144.968 97.986L142.7 93.1961H143.599L145.38 97.0125L146.989 93.1961ZM151.206 99.0359H154.317V99.8754H150.315V93.1961H154.269V94.0355H151.206V96.0872H154.03V96.9172H151.206V99.0359ZM160.832 96.4117C161.139 96.5575 161.383 96.7679 161.565 97.0419C161.746 97.3146 161.837 97.6297 161.837 97.986C161.837 98.5198 161.649 98.9689 161.272 99.331C160.896 99.6943 160.437 99.8754 159.894 99.8754H157.003V93.1961H159.683C160.207 93.1961 160.65 93.3713 161.014 93.7205C161.378 94.0708 161.56 94.5035 161.56 95.0184C161.56 95.6098 161.317 96.0743 160.832 96.4117ZM159.683 94.0261H157.894V96.0684H159.683C159.964 96.0684 160.2 95.9696 160.392 95.7721C160.583 95.5746 160.679 95.3335 160.679 95.0467C160.679 94.7668 160.582 94.527 160.387 94.326C160.193 94.1261 159.958 94.0261 159.683 94.0261ZM159.894 99.0453C160.194 99.0453 160.446 98.9407 160.65 98.7302C160.854 98.5198 160.957 98.2623 160.957 97.9578C160.957 97.6579 160.853 97.404 160.646 97.1935C160.438 96.9843 160.188 96.8796 159.894 96.8796H157.894V99.0453H159.894ZM170.081 98.9877C169.407 99.6626 168.585 99.9988 167.616 99.9988C166.645 99.9988 165.825 99.6626 165.155 98.9877C164.485 98.314 164.15 97.4957 164.15 96.5351C164.15 95.5687 164.485 94.7492 165.155 94.0779C165.825 93.4077 166.645 93.0715 167.616 93.0715C168.585 93.0715 169.407 93.4077 170.081 94.0779C170.753 94.7492 171.091 95.5687 171.091 96.5351C171.091 97.4957 170.753 98.314 170.081 98.9877ZM165.772 98.3822C166.267 98.8819 166.881 99.1311 167.616 99.1311C168.349 99.1311 168.964 98.8819 169.458 98.3822C169.952 97.8825 170.2 97.2676 170.2 96.5351C170.2 95.798 169.952 95.1795 169.458 94.6798C168.964 94.1802 168.349 93.9309 167.616 93.9309C166.881 93.9309 166.267 94.1802 165.772 94.6798C165.278 95.1795 165.03 95.798 165.03 96.5351C165.03 97.2676 165.278 97.8825 165.772 98.3822ZM175.012 92.4801V91.7546H177.596V92.4801H175.012ZM177.94 99.8754V94.8938L174.494 99.8754H173.777V93.1961H174.667V98.1858L178.113 93.1961H178.831V99.8754H177.94Z" fill="#6E6E6E"/>
</svg>
