<svg width="199" height="100" viewBox="0 0 199 100" fill="none" xmlns="http://www.w3.org/2000/svg">
<path d="M0.293002 81.311V65.1625H13.0381V67.0201H2.30769V71.7536H8.79998V73.6112H2.30769V79.4534H13.6987V81.311H0.293002ZM14.653 81.311V65.1625H16.6676V79.4534H27.2471V81.311H14.653ZM30.2208 79.0631C30.9816 79.0631 31.4227 79.7038 31.4227 80.4163C31.4227 81.1217 30.9615 81.7296 30.2208 81.7296C29.4694 81.7296 28.9881 81.1406 28.9881 80.4163C28.9881 79.7062 29.4729 79.0631 30.2208 79.0631ZM37.6131 71.5443H45.3569C46.8478 71.5443 47.9826 70.9188 47.9826 69.3022C47.9826 67.6174 46.9245 67.0201 45.3569 67.0201H37.6131V71.5443ZM37.6131 79.4534H46.0894C47.9661 79.4534 49.0642 78.2788 49.0642 76.4271C49.0642 74.5883 47.9543 73.4008 46.0894 73.4008H37.6131V79.4534ZM35.5984 81.311V65.1625H45.1823C47.9118 65.1625 50.0267 66.1795 50.0267 69.187C50.0267 70.3721 49.575 71.4749 48.5582 72.1427C50.2155 73.1033 51.1686 74.5177 51.1686 76.4577C51.1686 77.9496 50.6779 79.1289 49.6953 80.0025C48.7092 80.876 47.3763 81.311 45.6931 81.311H35.5984ZM53.175 81.311V65.1625H65.919V67.0201H55.1885V71.7536H61.6808V73.6112H55.1885V79.4534H66.5807V81.311H53.175ZM70.3258 75.0785H77.4586L73.8774 67.929L70.3258 75.0785ZM65.1003 81.311L73.0411 65.1625H74.7137L82.7442 81.311H80.5549L78.3562 76.9667H69.4034L67.2601 81.311H65.1003ZM0.0629883 81.311V64.932H13.2682V67.2494H2.5377V71.5231H9.03V73.8405H2.5377V79.223H13.9299V81.5403H0.0629883V81.311ZM0.524196 65.3929V81.0806H13.4687V79.6827H2.0765V73.3808H8.56879V71.984H2.0765V66.7897H12.8069V65.3929H0.524196ZM14.4229 81.311V64.932H16.8977V79.223H27.4783V81.5403H14.4229V81.311ZM14.8841 65.3929V81.0806H27.0171V79.6827H16.4364V65.3929H14.8841ZM30.2208 78.8338C30.8389 78.8338 31.3496 79.2218 31.5537 79.7979C31.8262 80.5645 31.5596 81.5121 30.7799 81.8472C30.4296 81.9988 30.0002 81.9965 29.6487 81.8495C29.0672 81.6026 28.7581 81.0371 28.7581 80.4163C28.7581 79.9731 28.8985 79.5968 29.1804 79.2923C29.48 78.9937 29.7891 78.8338 30.2208 78.8338ZM30.5982 79.3676C30.3682 79.2665 30.071 79.2688 29.8421 79.3699C29.0318 79.7273 28.9905 81.0759 29.8268 81.4263C30.0604 81.5215 30.3659 81.5274 30.5982 81.4274C31.4003 81.0818 31.3885 79.7179 30.5982 79.3676ZM37.8431 71.3139H45.3569C46.7216 71.3139 47.7514 70.7836 47.7514 69.3022C47.7514 67.7491 46.7971 67.2494 45.3569 67.2494H37.8431V71.3139ZM45.3569 71.7736H37.3819V66.7897H45.3569C47.0554 66.7897 48.2138 67.4904 48.2138 69.3022C48.2138 71.0481 46.9776 71.7736 45.3569 71.7736ZM37.8431 79.223H46.0894C47.8729 79.223 48.8342 78.1166 48.8342 76.4271C48.8342 74.7141 47.8281 73.6312 46.0894 73.6312H37.8431V79.223ZM46.0894 79.6827H37.3819V73.1715H46.0894C48.0805 73.1715 49.2954 74.4624 49.2954 76.4271C49.2954 78.3788 48.1135 79.6827 46.0894 79.6827ZM35.3684 81.311V64.932H45.1823C48.0427 64.932 50.2568 66.0502 50.2568 69.187C50.2568 70.3145 49.8628 71.3997 48.9699 72.1251C50.5363 73.1351 51.3998 74.58 51.3998 76.4577C51.3998 77.905 50.9492 79.1936 49.8486 80.1729C48.695 81.197 47.2052 81.5403 45.6931 81.5403H35.3684V81.311ZM35.8296 65.3929V81.0806H45.6931C47.0896 81.0806 48.4745 80.7761 49.542 79.8308C50.5446 78.9408 50.9374 77.7721 50.9374 76.4577C50.9374 75.6135 50.7522 74.814 50.311 74.0886H50.3098C49.8569 73.3432 49.194 72.7765 48.4438 72.3414L48.1229 72.1557C48.4579 71.9346 48.7375 71.7606 49.01 71.4514C49.5691 70.8189 49.7956 70.0194 49.7956 69.187C49.7956 66.3135 47.7844 65.3929 45.1823 65.3929H35.8296ZM52.9438 81.311V64.932H66.1501V67.2494H55.4197V71.5231H61.912V73.8405H55.4197V79.223H65.8706L72.8984 64.932H74.8565C77.6072 70.4697 80.3615 76.005 83.1157 81.5403H80.4134L78.2147 77.196H69.5473L67.4028 81.5403H52.9438V81.311ZM53.4062 65.3929V81.0806H64.9576L65.6453 79.6827H54.9585V73.3808H61.4508V71.984H54.9585V66.7897H65.6889V65.3929H53.4062ZM66.3825 79.223H66.8107V81.0806H67.1162L69.2606 76.7363H78.4978L80.6965 81.0806H82.3726L74.571 65.3929H73.1839L66.3825 79.223ZM66.3495 79.6827H66.156L65.4695 81.0806H66.3495V79.6827ZM70.6962 74.8493H77.0858L73.8774 68.4439L70.6962 74.8493ZM77.4586 75.309H69.9542L73.8763 67.4128L77.8325 75.309H77.4586ZM85.0101 65.1625V75.6182C85.0101 77.2912 85.3251 78.4164 85.9573 78.989C86.5872 79.5592 87.8257 79.8426 89.6788 79.8426C91.5284 79.8426 92.7669 79.5592 93.3909 78.989C94.0184 78.4164 94.3286 77.2912 94.3286 75.6182V65.1625H96.3421V76.1578C96.3421 78.1448 95.8255 79.5733 94.7887 80.4363C93.7518 81.3005 92.0438 81.7296 89.6694 81.7296C87.2949 81.7296 85.5869 81.3005 84.5501 80.4363C83.5121 79.5733 82.9966 78.1448 82.9966 76.1578V65.1625H85.0101ZM101.604 81.311V67.0201H94.7816V65.1625H110.441V67.0201H103.619V81.311H101.604ZM123.457 79.0631C124.217 79.0631 124.659 79.705 124.659 80.4163C124.659 81.1217 124.197 81.7296 123.457 81.7296C122.705 81.7296 122.224 81.1406 122.224 80.4163C122.224 79.7062 122.709 79.0631 123.457 79.0631ZM141.759 76.1578L143.383 77.3559C141.866 80.2247 139.148 81.7296 135.923 81.7296C133.498 81.7296 131.493 80.9325 129.911 79.3382C128.333 77.7462 127.543 75.7228 127.543 73.2714C127.543 70.8142 128.333 68.7861 129.917 67.1941C131.504 65.601 133.504 64.8027 135.919 64.8027C138.851 64.8027 141.434 66.0901 143.022 68.578L141.334 69.776C140.269 67.7491 138.178 66.6897 135.923 66.6897C134.105 66.6897 132.597 67.314 131.405 68.558C130.212 69.8007 129.616 71.3738 129.616 73.2714C129.616 75.1738 130.212 76.7469 131.405 77.9849C132.597 79.223 134.105 79.8426 135.923 79.8426C138.581 79.8426 140.531 78.454 141.759 76.1578ZM144.944 81.311V65.1625H146.957V79.4534H157.538V81.311H144.944ZM179.226 81.311V65.0719H181.27V81.311H179.226ZM197.019 76.1578L198.642 77.3559C197.125 80.2247 194.408 81.7296 191.182 81.7296C188.757 81.7296 186.752 80.9325 185.171 79.3382C183.592 77.7462 182.801 75.7228 182.801 73.2714C182.801 70.8142 183.592 68.7861 185.176 67.1941C186.762 65.601 188.763 64.8027 191.178 64.8027C194.11 64.8027 196.693 66.0901 198.281 68.578L196.593 69.776C195.528 67.7491 193.436 66.6897 191.182 66.6897C189.363 66.6897 187.856 67.314 186.663 68.558C185.471 69.8007 184.875 71.3738 184.875 73.2714C184.875 75.1738 185.471 76.7469 186.663 77.9849C187.856 79.223 189.363 79.8426 191.182 79.8426C193.841 79.8426 195.79 78.454 197.019 76.1578ZM115.339 81.311V73.2221L108.035 65.1625H110.564L116.365 71.5384L122.132 65.1625H124.687L117.352 73.2515V81.311H115.339ZM159.158 81.311V65.0719H161.201V81.311H159.158ZM163.424 81.311V65.1625H164.481L174.996 77.2313V65.1625H177.01V81.311H175.982L165.437 69.2422V81.311H163.424ZM85.2413 65.1625V75.6182C85.2413 77.223 85.5315 78.2906 86.1118 78.8185C86.9021 79.5333 88.6667 79.6121 89.6788 79.6121C90.6897 79.6121 92.4496 79.5345 93.2364 78.8185C93.9995 78.1178 94.0974 76.5835 94.0974 75.6182V64.932H110.673L116.365 71.1975L122.029 64.932H125.205L117.584 73.3385V81.5403H115.108V73.3079L109.617 67.2494H103.849V81.5403H101.374V67.2494H96.5722V76.1578C96.5722 77.7686 96.2395 79.5275 94.9373 80.6127C93.5749 81.7472 91.3774 81.96 89.6694 81.96C87.9614 81.96 85.7639 81.7472 84.4015 80.6127C83.0981 79.5275 82.7654 77.7686 82.7654 76.1578V64.932H85.2413V65.1625ZM84.7801 75.6182V65.3929H83.2278V76.1578C83.2278 77.6228 83.5074 79.27 84.6975 80.2611C85.962 81.3134 88.0864 81.5003 89.6694 81.5003C91.2523 81.5003 93.3767 81.3134 94.6412 80.2611C95.8302 79.27 96.1109 77.6228 96.1109 76.1578V67.2494H94.5586V75.6182C94.5586 76.4741 94.4784 77.1937 94.3168 77.7768C93.9677 79.0348 93.3048 79.5627 92.045 79.8531C91.408 79.9989 90.6201 80.073 89.6788 80.073C88.5181 80.073 86.7075 79.9742 85.8028 79.1583H85.8016C85.121 78.5387 84.7801 77.3583 84.7801 75.6182ZM96.1109 65.3929H95.0128V66.7897H96.1109V65.3929ZM96.5722 65.3929V66.7897H101.835V81.0806H103.388V66.7897H109.201L107.934 65.3929H96.5722ZM110.211 65.3929H108.553L109.819 66.7897H110.211V65.3929ZM110.673 65.6222V67.2494H110.236L115.569 73.1351V81.0806H117.121V73.1644L124.168 65.3929H122.233L116.366 71.8806L110.673 65.6222ZM123.457 78.8338C124.075 78.8338 124.586 79.2218 124.79 79.7979C125.062 80.5645 124.795 81.5121 124.016 81.8472C123.257 82.1752 122.38 81.7849 122.095 81.0159C121.89 80.4622 121.992 79.7156 122.417 79.2912C122.697 78.9949 123.047 78.8338 123.457 78.8338ZM123.834 79.3676C123.604 79.2665 123.307 79.2688 123.078 79.3699C122.268 79.7262 122.228 81.0759 123.063 81.4263C123.296 81.5215 123.602 81.5274 123.834 81.4274C124.635 81.0818 124.626 79.7191 123.834 79.3676ZM141.897 75.9733L143.678 77.2889C143.266 78.0672 142.837 78.7315 142.229 79.377C140.57 81.1359 138.32 81.96 135.923 81.96C133.522 81.96 131.455 81.2017 129.747 79.4992C128.05 77.785 127.311 75.657 127.311 73.2714C127.311 70.8824 128.05 68.7473 129.753 67.0331C131.445 65.3377 133.536 64.5723 135.919 64.5723C138.929 64.5723 141.585 65.9032 143.215 68.4545L143.332 68.6379L141.253 70.1158L141.13 69.8818C140.106 67.9313 138.09 66.9202 135.923 66.9202C134.223 66.9202 132.754 67.4822 131.571 68.7155C130.356 69.9829 129.848 71.5373 129.848 73.2714C129.848 75.1126 130.422 76.6328 131.571 77.8262C132.755 79.0572 134.224 79.6121 135.923 79.6121C138.495 79.6121 140.369 78.2706 141.557 76.0497L141.682 75.8145L141.897 75.9733ZM143.086 77.4217L141.834 76.4976C140.551 78.7468 138.557 80.073 135.923 80.073C134.1 80.073 132.51 79.464 131.238 78.1436C130.003 76.8609 129.385 75.2349 129.385 73.2714C129.385 71.4209 129.942 69.7513 131.238 68.3992C132.507 67.0754 134.096 66.4605 135.923 66.4605C138.162 66.4605 140.269 67.4775 141.411 69.4398L142.708 68.5192C141.15 66.2077 138.687 65.0331 135.919 65.0331C133.659 65.0331 131.685 65.7468 130.08 67.3564C128.46 68.9859 127.773 71.0023 127.773 73.2714C127.773 75.5382 128.462 77.5475 130.076 79.1771C131.682 80.7925 133.662 81.5003 135.923 81.5003C138.983 81.5003 141.588 80.1142 143.086 77.4217ZM144.712 81.311V64.932H147.188V79.223H157.768V81.5403H144.712V81.311ZM145.174 65.3929V81.0806H157.306V79.6827H146.726V65.3929H145.174ZM178.996 81.311V64.8427H181.502V81.5403H178.996V81.311ZM179.457 65.3024V81.0806H181.039V65.3024H179.457ZM197.156 75.9733L198.937 77.2889C198.525 78.0672 198.097 78.7315 197.488 79.377C195.83 81.1359 193.579 81.96 191.182 81.96C188.781 81.96 186.715 81.2017 185.006 79.4992C183.309 77.7862 182.57 75.657 182.57 73.2714C182.57 70.8824 183.309 68.7473 185.012 67.0331C186.703 65.3377 188.796 64.5723 191.178 64.5723C194.188 64.5723 196.845 65.9032 198.474 68.4545L198.591 68.6379L196.511 70.1158L196.389 69.8818C195.364 67.9313 193.35 66.9202 191.182 66.9202C189.481 66.9202 188.013 67.4822 186.83 68.7155C185.615 69.9829 185.106 71.5373 185.106 73.2714C185.106 75.1126 185.681 76.6328 186.83 77.8262C188.014 79.0572 189.482 79.6121 191.182 79.6121C193.754 79.6121 195.628 78.2706 196.816 76.0497L196.941 75.8145L197.156 75.9733ZM198.345 77.4217L197.093 76.4976C195.81 78.7468 193.816 80.073 191.182 80.073C189.359 80.073 187.769 79.464 186.497 78.1436C185.262 76.8609 184.644 75.2349 184.644 73.2714C184.644 71.4209 185.201 69.7513 186.497 68.3992C187.766 67.0754 189.355 66.4605 191.182 66.4605C193.421 66.4605 195.529 67.4775 196.67 69.4398L197.967 68.5192C196.409 66.2077 193.946 65.0331 191.178 65.0331C188.917 65.0331 186.944 65.7468 185.339 67.3564C183.72 68.9848 183.031 71.0023 183.031 73.2714C183.031 75.5382 183.72 77.5475 185.335 79.1771C186.941 80.7925 188.921 81.5003 191.182 81.5003C194.242 81.5003 196.846 80.1142 198.345 77.4217ZM158.927 81.311V64.8427H161.433V81.5403H158.927V81.311ZM159.388 65.3024V81.0806H160.971V65.3024H159.388ZM163.192 81.311V64.932H164.586L174.765 76.6164V64.932H177.241V81.5403H175.877L165.668 69.856V81.5403H163.192V81.311ZM163.655 65.3929V81.0806H165.207V68.6273L176.087 81.0806H176.779V65.3929H175.226V77.8462L164.377 65.3929H163.655Z" fill="white"/>
<path d="M110.67 11.1152C112.837 11.1152 114.8 11.9911 116.22 13.4067C117.64 14.8223 118.519 16.7787 118.519 18.9385C118.519 21.0983 117.64 23.0547 116.22 24.4703C114.8 25.8859 112.837 26.7618 110.67 26.7618V24.8559C112.31 24.8559 113.794 24.194 114.868 23.1229C115.943 22.0518 116.607 20.5728 116.607 18.9385C116.607 17.3042 115.943 15.824 114.868 14.7541C113.795 13.683 112.31 13.0199 110.67 13.0199V11.1152Z" fill="#EBB678"/>
<path d="M99.4999 0C106.65 0 113.123 2.88875 117.809 7.5599C122.494 12.2299 125.392 18.6822 125.392 25.8095C125.392 32.9355 122.494 39.3879 117.809 44.0591C113.123 48.729 106.649 51.6178 99.4999 51.6178C92.3494 51.6178 85.876 48.729 81.1908 44.0591C76.5056 39.3879 73.6074 32.9355 73.6074 25.8095C73.6074 18.6822 76.5056 12.2299 81.1908 7.5599C85.876 2.88875 92.3494 0 99.4999 0ZM116.345 9.01898C112.034 4.72171 106.078 2.06457 99.4999 2.06457C92.9215 2.06457 86.9659 4.72171 82.6546 9.01898C78.3434 13.3151 75.6775 19.2525 75.6775 25.8095C75.6775 32.3665 78.3434 38.3027 82.6546 42.5988C86.9659 46.8961 92.9215 49.5544 99.4999 49.5544C106.078 49.5544 112.034 46.8961 116.345 42.5988C120.656 38.3027 123.322 32.3665 123.322 25.8095C123.322 19.2525 120.656 13.3151 116.345 9.01898Z" fill="#EBB678"/>
<path d="M110.784 13.0211H98.5293V11.1152H110.784V13.0211Z" fill="#EBB678"/>
<path d="M92.7635 9.51822C92.4557 10.0449 92.0806 10.5293 91.65 10.9585C91.2207 11.3864 90.7347 11.7603 90.2062 12.0672C90.7347 12.3752 91.2207 12.7479 91.65 13.1771C92.0806 13.6062 92.4557 14.0894 92.7635 14.6173C93.0714 14.0894 93.4465 13.6062 93.877 13.1771C94.3076 12.7479 94.7924 12.3752 95.322 12.0672C94.7924 11.7603 94.3076 11.3864 93.877 10.9585C93.4465 10.5293 93.0714 10.0449 92.7635 9.51822ZM90.2994 9.6111C91.2313 8.68228 91.8081 7.39839 91.8081 5.98047H93.719C93.719 7.39839 94.2958 8.68228 95.2276 9.6111C96.1607 10.5399 97.4487 11.1149 98.8713 11.1149V13.0195C97.4487 13.0195 96.1607 13.5945 95.2276 14.5245C94.2958 15.4533 93.719 16.7372 93.719 18.1551H91.8081C91.8081 16.7372 91.2313 15.4533 90.2994 14.5245C89.3676 13.5945 88.0795 13.0195 86.6558 13.0195V11.1149C88.0795 11.1149 89.3676 10.5399 90.2994 9.6111Z" fill="#EBB678"/>
<path d="M104.902 11.1152C107.069 11.1152 109.032 11.9911 110.452 13.4067C111.872 14.8223 112.751 16.7787 112.751 18.9385C112.751 21.0983 111.872 23.0547 110.452 24.4703C109.032 25.8859 107.069 26.7618 104.902 26.7618V24.8559C106.542 24.8559 108.026 24.194 109.1 23.1229C110.175 22.0518 110.839 20.5728 110.839 18.9385C110.839 17.3042 110.175 15.824 109.1 14.7541C108.026 13.683 106.542 13.0199 104.902 13.0199V11.1152Z" fill="#EBB678"/>
<path d="M110.839 26.7623H99.1271V24.8564H110.839V26.7623ZM85.1576 26.7623H78.3574V24.8564H85.1576V26.7623Z" fill="#EBB678"/>
<path d="M98.6011 17.9863C100.768 17.9863 102.73 18.8622 104.15 20.2778C105.571 21.6934 106.449 23.6486 106.449 25.8096C106.449 27.9694 105.571 29.9246 104.15 31.3402C102.73 32.7569 100.768 33.6317 98.6011 33.6317V31.727C100.241 31.727 101.725 31.0651 102.799 29.994C103.874 28.9229 104.538 27.4438 104.538 25.8096C104.538 24.1742 103.874 22.6951 102.799 21.624C101.725 20.5529 100.241 19.891 98.6011 19.891V17.9863Z" fill="#EBB678"/>
<path d="M98.7144 19.891H82.4707V17.9863H98.7144V19.891Z" fill="#EBB678"/>
<path d="M98.7687 33.6312H82.4707V31.7266H98.7687V33.6312Z" fill="#EBB678"/>
<path d="M91.4461 25.8798C91.2585 25.6387 91.0674 25.406 90.8728 25.1849C90.6558 24.9357 90.4317 24.6982 90.2005 24.4713H90.1993C89.9823 24.2573 89.7322 24.0962 89.4491 23.988C89.1648 23.8799 88.8463 23.8246 88.4937 23.8246C87.8826 23.8246 87.4297 23.9716 87.1348 24.2655C86.9166 24.4807 86.7526 24.717 86.6441 24.9733C86.5356 25.2284 86.4813 25.5071 86.4813 25.8092C86.4813 26.109 86.5403 26.3936 86.6594 26.6593C86.7798 26.9285 86.9602 27.1825 87.2032 27.4223C87.3507 27.5658 87.53 27.6751 87.7411 27.748C87.9558 27.8221 88.207 27.8597 88.4937 27.8597C88.8959 27.8597 89.245 27.8115 89.5435 27.7127C89.836 27.6175 90.0778 27.474 90.2712 27.2848C90.4765 27.0802 90.6841 26.8521 90.8941 26.5993C91.0792 26.3759 91.2633 26.1361 91.4461 25.8798ZM93.4749 25.9421C93.5823 26.1008 93.7179 26.276 93.8842 26.4688C94.08 26.6945 94.316 26.9438 94.592 27.2166C94.809 27.4305 95.0591 27.5916 95.341 27.6986C95.6253 27.8056 95.9437 27.8597 96.2988 27.8597C96.5819 27.8597 96.8414 27.8127 97.0797 27.7162C97.3168 27.621 97.5326 27.4776 97.7284 27.2848C97.8971 27.1178 98.0245 26.9132 98.1094 26.671C98.1967 26.4241 98.2392 26.1361 98.2392 25.8092C98.2392 25.5047 98.1967 25.2343 98.1106 24.9992C98.0257 24.7675 97.8983 24.5688 97.7284 24.4007C97.5586 24.2326 97.3557 24.108 97.1198 24.0233C96.8815 23.9386 96.6067 23.8951 96.2988 23.8951C95.965 23.8951 95.6666 23.9386 95.4023 24.0257C95.144 24.1103 94.9175 24.2361 94.7241 24.4054C94.474 24.6311 94.2405 24.8804 94.0234 25.1496C93.8264 25.3965 93.6436 25.6611 93.4749 25.9421ZM92.398 24.5347C92.6056 24.2784 92.799 24.048 92.976 23.8434C93.1895 23.5977 93.3794 23.3931 93.5445 23.2285C93.8854 22.8934 94.2818 22.6418 94.7323 22.4737C95.1794 22.3067 95.6784 22.2233 96.2304 22.2233C96.8048 22.2233 97.3203 22.3067 97.778 22.4737C98.2392 22.6418 98.639 22.8934 98.9799 23.2285H98.9811C99.2984 23.5413 99.5367 23.9151 99.6959 24.349C99.8528 24.7793 99.9318 25.266 99.9318 25.8092C99.9318 26.3971 99.8528 26.9168 99.6959 27.3694C99.5379 27.8268 99.2984 28.2136 98.9811 28.5263C98.6178 28.8849 98.2061 29.153 97.7473 29.3317C97.2873 29.5104 96.7824 29.5998 96.2304 29.5998C95.1192 29.5998 94.1768 29.2188 93.4042 28.4558C93.1966 28.2512 93.0007 28.0513 92.8156 27.8585C92.6705 27.7068 92.5336 27.5599 92.4039 27.4176C92.3072 27.5422 92.1951 27.6763 92.0689 27.8174C91.8943 28.0114 91.6903 28.2242 91.4555 28.4558C91.0686 28.8379 90.6287 29.1236 90.1332 29.3141C89.639 29.5045 89.0929 29.5998 88.4937 29.5998C87.9652 29.5998 87.4887 29.5222 87.0664 29.3681C86.6394 29.2118 86.2678 28.9778 85.9505 28.6651C85.5648 28.2841 85.2746 27.855 85.0812 27.3765C84.8877 26.9003 84.791 26.3771 84.791 25.8092C84.791 25.2849 84.8889 24.7957 85.0824 24.3407C85.2758 23.8881 85.5648 23.4707 85.9505 23.0909C86.2678 22.7782 86.6394 22.5431 87.0664 22.3879C87.4887 22.2327 87.9652 22.1562 88.4937 22.1562C89.0469 22.1562 89.5659 22.2574 90.0483 22.4596C90.5308 22.6618 90.9754 22.964 91.3848 23.3661C91.5735 23.553 91.7622 23.7576 91.9498 23.9774C92.1007 24.1538 92.2505 24.3407 92.398 24.5347Z" fill="#EBB678"/>
<path d="M110.67 40.503C112.837 40.503 114.8 39.6271 116.22 38.2115C117.64 36.7959 118.519 34.8395 118.519 32.6797C118.519 30.5199 117.64 28.5635 116.22 27.1479C114.8 25.7324 112.837 24.8564 110.67 24.8564V26.7623C112.31 26.7623 113.794 27.4242 114.868 28.4953C115.943 29.5664 116.607 31.0455 116.607 32.6797C116.607 34.314 115.943 35.7942 114.868 36.8653C113.795 37.9352 112.31 38.5983 110.67 38.5983V40.503Z" fill="#EBB678"/>
<path d="M91.8081 45.6365C91.8081 44.2186 91.2313 42.9347 90.2994 42.0059C89.3676 41.0771 88.0795 40.5021 86.6558 40.5021V38.5975C88.0795 38.5975 89.3676 38.0225 90.2994 37.0925C91.2313 36.1637 91.8081 34.8798 91.8081 33.4619H93.719C93.719 34.8798 94.2958 36.1637 95.2276 37.0925C96.1607 38.0225 97.4487 38.5975 98.8713 38.5975V40.5021C97.4487 40.5021 96.1607 41.0771 95.2276 42.0059C94.2958 42.9347 93.719 44.2186 93.719 45.6365H91.8081ZM91.6512 40.6597C92.0806 41.0877 92.4557 41.5721 92.7635 42.0988C93.0714 41.5721 93.4465 41.0877 93.877 40.6585C94.3076 40.2306 94.7924 39.8567 95.322 39.5498C94.7924 39.2418 94.3076 38.8691 93.877 38.4399C93.4465 38.0108 93.0714 37.5276 92.7635 36.9997C92.4557 37.5276 92.0806 38.0108 91.65 38.4399C91.2207 38.8691 90.7347 39.2418 90.2062 39.5498C90.7347 39.8567 91.2207 40.2306 91.6512 40.6597Z" fill="#EBB678"/>
<path d="M104.902 40.503C107.069 40.503 109.032 39.6271 110.452 38.2115C111.872 36.7959 112.751 34.8395 112.751 32.6797C112.751 30.5199 111.872 28.5635 110.452 27.1479C109.032 25.7324 107.069 24.8564 104.902 24.8564V26.7623C106.542 26.7623 108.026 27.4242 109.1 28.4953C110.175 29.5664 110.839 31.0455 110.839 32.6797C110.839 34.314 110.175 35.7942 109.1 36.8653C108.026 37.9352 106.542 38.5983 104.902 38.5983V40.503Z" fill="#EBB678"/>
<path d="M98.7144 33.6312H82.4707V31.7266H98.7144V33.6312Z" fill="#EBB678"/>
<path d="M110.784 40.5023H98.7085V38.5977H110.784V40.5023Z" fill="#EBB678"/>
<path d="M25.0412 99.8756H23.9501L21.059 96.6694V99.8756H20.1685V93.1963H21.059V96.2109L23.8546 93.1963H24.9457L21.9873 96.4401L25.0412 99.8756ZM26.8943 99.8756V99.0738C27.3343 99.1373 27.6646 99.015 27.8851 98.7069C28.1045 98.3977 28.2154 97.824 28.2154 96.9845V93.1963H32.6376V99.8756H31.7482V94.0358H29.106V96.9845C29.106 97.5818 29.0494 98.0838 28.9373 98.4871C28.8264 98.8915 28.6672 99.1949 28.4596 99.3983C28.252 99.6017 28.022 99.7404 27.7695 99.8133C27.5183 99.8862 27.2258 99.9074 26.8943 99.8756ZM39.8518 99.8756V94.8941L36.4051 99.8756H35.6879V93.1963H36.5785V98.1861L40.024 93.1963H40.7423V99.8756H39.8518ZM47.9376 93.1963H48.8176V99.8756H47.9376V96.8693H44.6821V99.8756H43.7915V93.1963H44.6821V96.0298H47.9376V93.1963ZM56.0318 99.8756V94.8941L52.5851 99.8756H51.8679V93.1963H52.7573V98.1861L56.204 93.1963H56.9223V99.8756H56.0318ZM64.8443 99.8756H63.7532L60.8621 96.6694V99.8756H59.9715V93.1963H60.8621V96.2109L63.6576 93.1963H64.7487L61.7904 96.4401L64.8443 99.8756ZM71.7907 99.8756L71.2445 98.3777H68.2296L67.6835 99.8756H66.7351L69.2346 93.1963H70.2396L72.7379 99.8756H71.7907ZM68.5351 97.5477H70.9379L69.7323 94.2556L68.5351 97.5477ZM80.0287 93.0717C81.0372 93.0717 81.8665 93.4044 82.5176 94.0687C83.1687 94.7342 83.4943 95.556 83.4943 96.5354C83.4943 97.5089 83.1687 98.3295 82.5176 98.9973C81.8665 99.6652 81.0372 99.9991 80.0287 99.9991C79.4095 99.9991 78.8421 99.8521 78.3243 99.5558C77.8076 99.2607 77.4125 98.8645 77.1376 98.3683L77.9126 97.9286C78.0978 98.2919 78.3821 98.5823 78.7654 98.8022C79.1476 99.022 79.5687 99.1314 80.0287 99.1314C80.7247 99.1314 81.3015 98.928 81.7615 98.52C82.2203 98.1132 82.4952 97.5888 82.5848 96.9457H79.1382V96.1156H82.5848C82.4952 95.4737 82.2203 94.9481 81.7615 94.5413C81.3015 94.1345 80.7247 93.9311 80.0287 93.9311C79.5687 93.9311 79.1499 94.0405 78.7701 94.2603C78.3903 94.479 78.1049 94.7741 77.9126 95.1421L77.1376 94.6942C77.4184 94.198 77.817 93.803 78.3337 93.5114C78.8515 93.2187 79.4153 93.0717 80.0287 93.0717ZM85.2223 99.8756V99.0738C85.6635 99.1373 85.9938 99.015 86.2132 98.7069C86.4337 98.3977 86.5434 97.824 86.5434 96.9845V93.1963H90.9668V99.8756H90.0762V94.0358H87.434V96.9845C87.434 97.5818 87.3785 98.0838 87.2665 98.4871C87.1544 98.8915 86.9952 99.1949 86.7876 99.3983C86.58 99.6017 86.3512 99.7404 86.0987 99.8133C85.8463 99.8862 85.555 99.9074 85.2223 99.8756ZM99.5929 98.9879C98.9194 99.6628 98.0972 99.9991 97.1276 99.9991C96.158 99.9991 95.337 99.6628 94.6671 98.9879C93.9971 98.3142 93.6621 97.4959 93.6621 96.5354C93.6621 95.5689 93.9971 94.7495 94.6671 94.0781C95.337 93.408 96.158 93.0717 97.1276 93.0717C98.0972 93.0717 98.9194 93.408 99.5929 94.0781C100.266 94.7495 100.603 95.5689 100.603 96.5354C100.603 97.4959 100.266 98.3142 99.5929 98.9879ZM95.284 98.3824C95.7794 98.8821 96.3939 99.1314 97.1276 99.1314C97.8613 99.1314 98.4758 98.8821 98.9701 98.3824C99.4655 97.8828 99.712 97.2679 99.712 96.5354C99.712 95.7982 99.4655 95.1798 98.9701 94.6801C98.4758 94.1804 97.8613 93.9311 97.1276 93.9311C96.3939 93.9311 95.7794 94.1804 95.284 94.6801C94.7897 95.1798 94.5432 95.7982 94.5432 96.5354C94.5432 97.2679 94.7897 97.8828 95.284 98.3824ZM107.433 93.1963H108.315V99.8756H107.433V96.8693H104.179V99.8756H103.288V93.1963H104.179V96.0298H107.433V93.1963ZM111.364 99.8756V93.1963H112.254V95.5819H113.796C114.414 95.5819 114.93 95.7888 115.341 96.2015C115.753 96.6153 115.959 97.1244 115.959 97.7287C115.959 98.3389 115.753 98.8504 115.341 99.2607C114.93 99.6699 114.414 99.8756 113.796 99.8756H111.364ZM116.639 99.8756V93.1963H117.529V99.8756H116.639ZM112.254 99.0455H113.796C114.165 99.0455 114.472 98.9209 114.715 98.6728C114.957 98.4248 115.078 98.1097 115.078 97.7287C115.078 97.3466 114.957 97.0315 114.715 96.7835C114.472 96.5354 114.165 96.4119 113.796 96.4119H112.254V99.0455ZM126.735 93.1963V94.0358H123.862V99.8756H122.972V93.1963H126.735ZM132.877 99.8756L132.33 98.3777H129.315L128.769 99.8756H127.821L130.32 93.1963H131.325L133.824 99.8756H132.877ZM129.621 97.5477H132.024L130.818 94.2556L129.621 97.5477ZM138.75 95.8205C139.331 95.8205 139.822 96.0157 140.224 96.4072C140.626 96.7987 140.827 97.2773 140.827 97.8428C140.827 98.4224 140.627 98.9056 140.229 99.2936C139.83 99.6816 139.337 99.8756 138.75 99.8756H136.232V93.1963H140.253V94.0358H137.123V95.8205H138.75ZM138.75 99.0455C139.082 99.0455 139.364 98.9315 139.598 98.7022C139.83 98.473 139.947 98.1861 139.947 97.8428C139.947 97.5054 139.83 97.2232 139.598 96.9939C139.364 96.7646 139.082 96.6506 138.75 96.6506H137.123V99.0455H138.75ZM146.989 93.1963H147.888L145.734 98.2919C145.492 98.8645 145.182 99.2795 144.805 99.537C144.429 99.7945 143.969 99.9074 143.426 99.8756V99.055C143.797 99.0938 144.096 99.0385 144.326 98.8927C144.557 98.7469 144.748 98.4953 144.901 98.1391L144.968 97.9862L142.7 93.1963H143.599L145.38 97.0127L146.989 93.1963ZM151.206 99.0361H154.317V99.8756H150.315V93.1963H154.269V94.0358H151.206V96.0874H154.03V96.9175H151.206V99.0361ZM160.832 96.4119C161.139 96.5577 161.383 96.7682 161.565 97.0421C161.746 97.3149 161.837 97.63 161.837 97.9862C161.837 98.52 161.649 98.9691 161.272 99.3312C160.896 99.6945 160.437 99.8756 159.894 99.8756H157.003V93.1963H159.683C160.207 93.1963 160.65 93.3715 161.014 93.7207C161.378 94.0711 161.56 94.5037 161.56 95.0187C161.56 95.6101 161.317 96.0745 160.832 96.4119ZM159.683 94.0264H157.894V96.0686H159.683C159.964 96.0686 160.2 95.9699 160.392 95.7723C160.583 95.5748 160.679 95.3338 160.679 95.0469C160.679 94.7671 160.582 94.5272 160.387 94.3262C160.193 94.1263 159.958 94.0264 159.683 94.0264ZM159.894 99.0455C160.194 99.0455 160.446 98.9409 160.65 98.7305C160.854 98.52 160.957 98.2625 160.957 97.958C160.957 97.6582 160.853 97.4042 160.646 97.1938C160.438 96.9845 160.188 96.8799 159.894 96.8799H157.894V99.0455H159.894ZM170.081 98.9879C169.407 99.6628 168.585 99.9991 167.616 99.9991C166.645 99.9991 165.825 99.6628 165.155 98.9879C164.485 98.3142 164.15 97.4959 164.15 96.5354C164.15 95.5689 164.485 94.7495 165.155 94.0781C165.825 93.408 166.645 93.0717 167.616 93.0717C168.585 93.0717 169.407 93.408 170.081 94.0781C170.753 94.7495 171.091 95.5689 171.091 96.5354C171.091 97.4959 170.753 98.3142 170.081 98.9879ZM165.772 98.3824C166.267 98.8821 166.881 99.1314 167.616 99.1314C168.349 99.1314 168.964 98.8821 169.458 98.3824C169.952 97.8828 170.2 97.2679 170.2 96.5354C170.2 95.7982 169.952 95.1798 169.458 94.6801C168.964 94.1804 168.349 93.9311 167.616 93.9311C166.881 93.9311 166.267 94.1804 165.772 94.6801C165.278 95.1798 165.03 95.7982 165.03 96.5354C165.03 97.2679 165.278 97.8828 165.772 98.3824ZM175.012 92.4803V91.7549H177.596V92.4803H175.012ZM177.94 99.8756V94.8941L174.494 99.8756H173.777V93.1963H174.667V98.1861L178.113 93.1963H178.831V99.8756H177.94Z" fill="#6E6E6E"/>
</svg>
